<?xml version="1.0" encoding="UTF-8" standalone="yes"?><svg xmlns="http://www.w3.org/2000/svg" xmlns:xlink="http://www.w3.org/1999/xlink" height="455px" style="width:585px;height:454px;" version="1.1" viewBox="0 0 585 454" width="585.2px"><defs><filter height="300%" id="f1" width="300%" x="-1" y="-1"><feGaussianBlur result="blurOut" stdDeviation="2.799999952316284"/><feColorMatrix in="blurOut" result="blurOut2" type="matrix" values="0 0 0 0 0 0 0 0 0 0 0 0 0 0 0 0 0 0 .4 0"/><feOffset dx="5.599999904632568" dy="5.599999904632568" in="blurOut2" result="blurOut3"/><feBlend in="SourceGraphic" in2="blurOut3" mode="normal"/></filter></defs><g><rect fill="#FEFECE" filter="url(#f1)" height="44.8" style="stroke: #A80036; stroke-width: 2.099999964237213;" width="155.4" x="8.4" y="140"/><ellipse cx="29.4" cy="162.4" fill="#ADD1B2" rx="15.4" ry="15.4" style="stroke: #A80036; stroke-width: 1.399999976158142;"/><path d="M33.6,169.4 Q32.7469,170.1 31.8281,170.45 Q30.9094,170.8 29.8812,170.8 Q26.2281,170.8 24.3141,168.6453 Q22.4,166.4906 22.4,162.4 Q22.4,158.3094 24.3141,156.1547 Q26.2281,154 29.8812,154 Q30.9094,154 31.85,154.35 Q32.7906,154.7 33.6,155.4 L33.6,159.6 Q32.7469,158.1562 31.9375,157.4781 Q31.1281,156.8 30.275,156.8 Q28.4594,156.8 27.5297,158.2109 Q26.6,159.6219 26.6,162.4 Q26.6,165.1781 27.5297,166.5891 Q28.4594,168 30.275,168 Q31.1281,168 31.9375,167.3219 Q32.7469,166.6437 33.6,165.2 L33.6,169.4 Z "/><text fill="#000000" font-family="sans-serif" font-size="16.8" lengthAdjust="spacingAndGlyphs" textLength="110.6" x="49" y="168.216">HomeActivity</text><rect fill="#FEFECE" filter="url(#f1)" height="44.8" style="stroke: #A80036; stroke-width: 2.099999964237213;" width="85.4" x="152.6" y="11.2"/><ellipse cx="173.6" cy="33.6" fill="#B4A7E5" rx="15.4" ry="15.4" style="stroke: #A80036; stroke-width: 1.399999976158142;"/><path d="M168.7,28 L168.7,25.2 L178.5,25.2 L178.5,28 L175.7,28 L175.7,39.2 L178.5,39.2 L178.5,42 L168.7,42 L168.7,39.2 L171.5,39.2 L171.5,28 L168.7,28 Z "/><text fill="#000000" font-family="sans-serif" font-size="16.8" font-style="italic" lengthAdjust="spacingAndGlyphs" textLength="40.6" x="193.2" y="39.416">View</text><rect fill="#FEFECE" filter="url(#f1)" height="44.8" style="stroke: #A80036; stroke-width: 2.099999964237213;" width="96.6" x="256.2" y="397.6"/><ellipse cx="277.2" cy="420" fill="#B4A7E5" rx="15.4" ry="15.4" style="stroke: #A80036; stroke-width: 1.399999976158142;"/><path d="M272.3,414.4 L272.3,411.6 L282.1,411.6 L282.1,414.4 L279.3,414.4 L279.3,425.6 L282.1,425.6 L282.1,428.4 L272.3,428.4 L272.3,425.6 L275.1,425.6 L275.1,414.4 L272.3,414.4 Z "/><text fill="#000000" font-family="sans-serif" font-size="16.8" font-style="italic" lengthAdjust="spacingAndGlyphs" textLength="51.8" x="296.8" y="425.816">Model</text><rect fill="#FEFECE" filter="url(#f1)" height="44.8" style="stroke: #A80036; stroke-width: 2.099999964237213;" width="128.8" x="444.15" y="140"/><ellipse cx="465.15" cy="162.4" fill="#B4A7E5" rx="15.4" ry="15.4" style="stroke: #A80036; stroke-width: 1.399999976158142;"/><path d="M460.25,156.8 L460.25,154 L470.05,154 L470.05,156.8 L467.25,156.8 L467.25,168 L470.05,168 L470.05,170.8 L460.25,170.8 L460.25,168 L463.05,168 L463.05,156.8 L460.25,156.8 Z "/><text fill="#000000" font-family="sans-serif" font-size="16.8" font-style="italic" lengthAdjust="spacingAndGlyphs" textLength="84" x="484.75" y="168.216">Presenter</text><rect fill="#FEFECE" filter="url(#f1)" height="44.8" style="stroke: #A80036; stroke-width: 2.099999964237213;" width="182" x="213.15" y="140"/><ellipse cx="234.15" cy="162.4" fill="#ADD1B2" rx="15.4" ry="15.4" style="stroke: #A80036; stroke-width: 1.399999976158142;"/><path d="M238.35,169.4 Q237.4969,170.1 236.5781,170.45 Q235.6594,170.8 234.6312,170.8 Q230.9781,170.8 229.0641,168.6453 Q227.15,166.4906 227.15,162.4 Q227.15,158.3094 229.0641,156.1547 Q230.9781,154 234.6312,154 Q235.6594,154 236.6,154.35 Q237.5406,154.7 238.35,155.4 L238.35,159.6 Q237.4969,158.1562 236.6875,157.4781 Q235.8781,156.8 235.025,156.8 Q233.2094,156.8 232.2797,158.2109 Q231.35,159.6219 231.35,162.4 Q231.35,165.1781 232.2797,166.5891 Q233.2094,168 235.025,168 Q235.8781,168 236.6875,167.3219 Q237.4969,166.6437 238.35,165.2 L238.35,169.4 Z "/><text fill="#000000" font-family="sans-serif" font-size="16.8" lengthAdjust="spacingAndGlyphs" textLength="137.2" x="253.75" y="168.216">HomePresenter</text><rect fill="#FEFECE" filter="url(#f1)" height="44.8" style="stroke: #A80036; stroke-width: 2.099999964237213;" width="147" x="231" y="268.8"/><ellipse cx="252" cy="291.2" fill="#ADD1B2" rx="15.4" ry="15.4" style="stroke: #A80036; stroke-width: 1.399999976158142;"/><path d="M256.2,298.2 Q255.3469,298.9 254.4281,299.25 Q253.5094,299.6 252.4812,299.6 Q248.8281,299.6 246.9141,297.4453 Q245,295.2906 245,291.2 Q245,287.1094 246.9141,284.9547 Q248.8281,282.8 252.4812,282.8 Q253.5094,282.8 254.45,283.15 Q255.3906,283.5 256.2,284.2 L256.2,288.4 Q255.3469,286.9562 254.5375,286.2781 Q253.7281,285.6 252.875,285.6 Q251.0594,285.6 250.1297,287.0109 Q249.2,288.4219 249.2,291.2 Q249.2,293.9781 250.1297,295.3891 Q251.0594,296.8 252.875,296.8 Q253.7281,296.8 254.5375,296.1219 Q255.3469,295.4437 256.2,294 L256.2,298.2 Z "/><text fill="#000000" font-family="sans-serif" font-size="16.8" lengthAdjust="spacingAndGlyphs" textLength="102.2" x="271.6" y="297.016">HomeModel</text><path d="M157.668,78.0178 C139.5528,98.9198 118.6002,123.0964 104.0007,139.9412 " fill="none" style="stroke: #A80036; stroke-width: 1.399999976158142; stroke-dasharray: 7.0,7.0;"/><polygon fill="none" points="150.682,71.1158,176.4252,56.3738,165.494,83.9524,150.682,71.1158" style="stroke: #A80036; stroke-width: 1.399999976158142;"/><path d="M163.3842,162.4 C177.4318,162.4 191.4794,162.4 205.527,162.4 " fill="none" style="stroke: #A80036; stroke-width: 1.399999976158142;"/><polygon fill="#A80036" points="212.8728,162.4,200.2728,156.8,205.8728,162.4,200.2728,168,212.8728,162.4" style="stroke: #A80036; stroke-width: 1.399999976158142;"/><path d="M285.8996,139.9412 C267.3748,118.5674 238.623,85.3916 218.4168,62.076 " fill="none" style="stroke: #A80036; stroke-width: 1.399999976158142;"/><polygon fill="#A80036" points="213.4748,56.3738,217.4941,69.5634,218.0589,61.664,225.9584,62.2288,213.4748,56.3738" style="stroke: #A80036; stroke-width: 1.399999976158142;"/><path d="M395.1724,162.4 C409.0002,162.4 422.8294,162.4 436.6572,162.4 " fill="none" style="stroke: #A80036; stroke-width: 1.399999976158142; stroke-dasharray: 7.0,7.0;"/><polygon fill="#A80036" points="443.8896,162.4,431.2896,156.8,436.8896,162.4,431.2896,168,443.8896,162.4" style="stroke: #A80036; stroke-width: 1.399999976158142;"/><path d="M304.15,185.1738 C304.15,206.1164 304.15,238.168 304.15,261.2764 " fill="none" style="stroke: #A80036; stroke-width: 1.399999976158142;"/><polygon fill="#A80036" points="304.15,268.7412,309.75,256.1412,304.15,261.7412,298.55,256.1412,304.15,268.7412" style="stroke: #A80036; stroke-width: 1.399999976158142;"/><path d="M304.15,313.9742 C304.15,329.0895 304.15,349.991 304.15,369.1408 " fill="none" style="stroke: #A80036; stroke-width: 1.399999976158142; stroke-dasharray: 7.0,7.0;"/><polygon fill="none" points="313.95,369.5415,304.15,397.5415,294.35,369.5415,313.95,369.5415" style="stroke: #A80036; stroke-width: 1.399999976158142;"/></g></svg>